<?xml version="1.0" standalone="no"?>
<!DOCTYPE svg PUBLIC "-//W3C//DTD SVG 20010904//EN"
 "http://www.w3.org/TR/2001/REC-SVG-20010904/DTD/svg10.dtd">
<svg version="1.0" xmlns="http://www.w3.org/2000/svg"
 width="800.000000pt" height="600.000000pt" viewBox="0 0 800.000000 600.000000"
 preserveAspectRatio="xMidYMid meet">

<g transform="translate(0.000000,600.000000) scale(0.100000,-0.100000)"
fill="#000000" stroke="none">
<path d="M2682 3879 c-183 -32 -336 -118 -471 -266 -105 -114 -169 -240 -212
-420 -28 -114 -30 -309 -5 -433 70 -337 298 -584 621 -672 67 -18 108 -22 245
-22 141 0 177 3 250 22 180 48 321 141 437 286 307 386 270 957 -86 1302 -92
90 -199 149 -347 190 -70 19 -349 28 -432 13z m290 -445 c16 -16 36 -42 45
-57 56 -109 68 -577 17 -747 -30 -103 -84 -150 -172 -150 -91 0 -149 64 -177
197 -33 159 -28 524 11 652 21 71 76 131 130 140 58 10 111 -3 146 -35z"/>
<path d="M80 3555 l0 -305 185 0 185 0 0 110 0 110 190 0 c105 0 190 -2 190
-4 0 -3 -173 -222 -385 -488 l-385 -483 0 -202 0 -203 780 0 780 0 0 315 0
315 -185 0 -185 0 0 -120 0 -120 -225 0 -225 0 405 506 405 506 0 184 0 184
-765 0 -765 0 0 -305z"/>
<path d="M4120 3645 l0 -215 65 0 65 0 0 -455 0 -455 -65 0 -65 0 0 -215 0
-215 325 0 325 0 -2 213 -3 212 -67 3 -68 3 0 301 0 301 329 -529 329 -529
261 -3 261 -2 0 685 0 685 70 0 70 0 0 215 0 215 -320 0 -320 0 0 -215 0 -215
65 0 65 0 0 -241 c0 -132 -4 -238 -8 -235 -5 3 -134 208 -288 455 l-279 451
-372 0 -373 0 0 -215z"/>
<path d="M6474 3847 c-2 -7 -3 -102 -2 -212 l3 -200 63 -3 c45 -2 62 -7 59
-15 -2 -7 -36 -111 -75 -232 -39 -121 -102 -320 -142 -442 l-71 -223 -60 0
-59 0 0 -215 0 -215 310 0 310 0 0 195 0 195 -60 0 c-33 0 -60 3 -60 6 0 3 14
53 32 110 l32 104 200 -2 200 -3 23 -80 c12 -44 25 -92 28 -107 l6 -27 -68 -3
-68 -3 -3 -192 -2 -193 415 0 415 0 0 215 0 215 -58 0 -58 0 -147 448 c-81
247 -147 452 -147 455 0 4 27 7 60 7 l60 0 0 215 0 215 -565 0 c-450 0 -567
-3 -571 -13z m616 -919 c0 -5 -61 -8 -135 -8 -86 0 -135 4 -135 10 0 13 130
441 138 454 4 8 130 -429 132 -456z"/>
</g>
</svg>
