<?xml version="1.0"?>
<svg width="800" height="600" xmlns="http://www.w3.org/2000/svg" xmlns:svg="http://www.w3.org/2000/svg" preserveAspectRatio="xMidYMid meet" version="1.0">
 <g class="layer">
  <title>Layer 1</title>
  <g fill="#d7a8e0" id="svg_1" transform="translate(0 600) matrix(0.1 0 0 -0.1 0 0)">
   <path d="m2682,3879c-183,-32 -336,-118 -471,-266c-105,-114 -169,-240 -212,-420c-28,-114 -30,-309 -5,-433c70,-337 298,-584 621,-672c67,-18 108,-22 245,-22c141,0 177,3 250,22c180,48 321,141 437,286c307,386 270,957 -86,1302c-92,90 -199,149 -347,190c-70,19 -349,28 -432,13zm290,-445c16,-16 36,-42 45,-57c56,-109 68,-577 17,-747c-30,-103 -84,-150 -172,-150c-91,0 -149,64 -177,197c-33,159 -28,524 11,652c21,71 76,131 130,140c58,10 111,-3 146,-35z" fill="#d7a8e0" id="svg_2"/>
   <path d="m80,3555l0,-305l185,0l185,0l0,110l0,110l190,0c105,0 190,-2 190,-4c0,-3 -173,-222 -385,-488l-385,-483l0,-202l0,-203l780,0l780,0l0,315l0,315l-185,0l-185,0l0,-120l0,-120l-225,0l-225,0l405,506l405,506l0,184l0,184l-765,0l-765,0l0,-305z" fill="#d7a8e0" id="svg_3"/>
   <path d="m4120,3645l0,-215l65,0l65,0l0,-455l0,-455l-65,0l-65,0l0,-215l0,-215l325,0l325,0l-2,213l-3,212l-67,3l-68,3l0,301l0,301l329,-529l329,-529l261,-3l261,-2l0,685l0,685l70,0l70,0l0,215l0,215l-320,0l-320,0l0,-215l0,-215l65,0l65,0l0,-241c0,-132 -4,-238 -8,-235c-5,3 -134,208 -288,455l-279,451l-372,0l-373,0l0,-215z" fill="#d7a8e0" id="svg_4"/>
   <path d="m6474,3847c-2,-7 -3,-102 -2,-212l3,-200l63,-3c45,-2 62,-7 59,-15c-2,-7 -36,-111 -75,-232c-39,-121 -102,-320 -142,-442l-71,-223l-60,0l-59,0l0,-215l0,-215l310,0l310,0l0,195l0,195l-60,0c-33,0 -60,3 -60,6c0,3 14,53 32,110l32,104l200,-2l200,-3l23,-80c12,-44 25,-92 28,-107l6,-27l-68,-3l-68,-3l-3,-192l-2,-193l415,0l415,0l0,215l0,215l-58,0l-58,0l-147,448c-81,247 -147,452 -147,455c0,4 27,7 60,7l60,0l0,215l0,215l-565,0c-450,0 -567,-3 -571,-13zm616,-919c0,-5 -61,-8 -135,-8c-86,0 -135,4 -135,10c0,13 130,441 138,454c4,8 130,-429 132,-456z" fill="#d7a8e0" id="svg_5"/>
  </g>
  <text fill="#000000" font-family="Sans-serif" font-size="61.11" font-weight="bold" id="svg_6" stroke="#000000" stroke-width="0" text-anchor="middle" x="738.36" xml:space="preserve" y="233.57">™</text>
 </g>
</svg>